<svg width="204" height="47" viewBox="0 0 204 47" fill="none" xmlns="http://www.w3.org/2000/svg">
<path d="M12.28 33.5304C10.6533 33.5304 9.18667 33.1971 7.88 32.5304C6.6 31.8637 5.57333 30.9037 4.8 29.6504C4.05333 28.3971 3.68 26.8771 3.68 25.0904C3.68 24.8771 3.68 24.6637 3.68 24.4504C3.70667 24.2104 3.73333 23.9837 3.76 23.7704C2.58667 22.6771 1.73333 21.4904 1.2 20.2104C0.666667 18.9037 0.4 17.6104 0.4 16.3304C0.4 15.0771 0.613333 13.8637 1.04 12.6904C1.49333 11.4904 2.08 10.4371 2.8 9.53039L2.84 9.45039L2.48 8.85039C1.89333 7.86372 1.6 6.87706 1.6 5.89039C1.6 4.90372 1.88 4.01039 2.44 3.21039C3.02667 2.38372 3.82667 1.73039 4.84 1.25039C5.88 0.77039 7.08 0.53039 8.44 0.53039C9.64 0.53039 10.96 0.743723 12.4 1.17039C13.84 1.59706 15.3333 2.31706 16.88 3.33039C17.1733 3.51706 17.4667 3.71706 17.76 3.93039C18.08 4.14372 18.3867 4.37039 18.68 4.61039C19.6667 4.02372 20.6533 3.49039 21.64 3.01039C22.6267 2.50372 23.6133 2.07706 24.6 1.73039C25.9867 1.19706 27.24 0.823723 28.36 0.610389C29.5067 0.370389 30.52 0.250389 31.4 0.250389C33.0533 0.250389 34.28 0.610389 35.08 1.33039C35.9067 2.02372 36.32 2.91706 36.32 4.01039C36.32 4.97039 36.0133 6.02372 35.4 7.17039C34.8133 8.29039 33.92 9.42372 32.72 10.5704C31.52 11.6904 30.04 12.7171 28.28 13.6504C27.4 14.1037 26.5067 14.5037 25.6 14.8504C25.6533 15.0904 25.7067 15.3437 25.76 15.6104C25.8133 15.8504 25.8533 16.1037 25.88 16.3704C25.9067 16.5571 25.92 16.7571 25.92 16.9704C25.9467 17.1837 25.96 17.3971 25.96 17.6104C25.96 19.1304 25.6133 20.5037 24.92 21.7304C24.2533 22.9571 23.3333 23.9971 22.16 24.8504C21.0133 25.7037 19.6933 26.3704 18.2 26.8504C16.7333 27.3037 15.2133 27.5304 13.64 27.5304C12.4667 27.5304 11.28 27.3971 10.08 27.1304C8.90667 26.8637 7.77333 26.4371 6.68 25.8504C6.65333 28.0904 7.17333 29.8104 8.24 31.0104C9.30667 32.2371 10.7733 32.8504 12.64 32.8504C13.6267 32.8504 14.72 32.6504 15.92 32.2504C17.12 31.8771 18.3733 31.3171 19.68 30.5704C20.9333 29.8504 22.1067 29.0371 23.2 28.1304C24.32 27.1971 25.32 26.2504 26.2 25.2904C27.1067 24.3037 27.8133 23.3704 28.32 22.4904C28.3733 22.3837 28.4533 22.3304 28.56 22.3304C28.64 22.3304 28.7067 22.3704 28.76 22.4504C28.84 22.5304 28.8533 22.6371 28.8 22.7704C27.92 24.3171 26.7067 25.8504 25.16 27.3704C23.64 28.8637 21.96 30.1437 20.12 31.2104C18.7867 31.9837 17.4533 32.5571 16.12 32.9304C14.7867 33.3304 13.5067 33.5304 12.28 33.5304ZM25.44 14.2504C25.8933 14.0637 26.32 13.8771 26.72 13.6904C27.12 13.5037 27.5067 13.3037 27.88 13.0904C30.3333 11.7304 32.2 10.2104 33.48 8.53039C34.76 6.85039 35.4 5.35706 35.4 4.05039C35.4 3.11706 35.08 2.37039 34.44 1.81039C33.8267 1.22372 32.8533 0.930389 31.52 0.930389C30.6933 0.930389 29.72 1.07706 28.6 1.37039C27.5067 1.63705 26.2533 2.07705 24.84 2.69039C23.1067 3.41039 21.4133 4.35706 19.76 5.53039C21.04 6.67706 22.1867 8.01039 23.2 9.53039C24.2133 11.0237 24.96 12.5971 25.44 14.2504ZM8.32 13.4504C9.57333 11.9037 11.0133 10.4237 12.64 9.01039C14.2933 7.57039 16.0133 6.27706 17.8 5.13039L16.56 4.29039C15.2 3.35706 13.8533 2.69039 12.52 2.29039C11.2133 1.89039 9.98667 1.69039 8.84 1.69039C7.10667 1.69039 5.66667 2.09039 4.52 2.89039C3.4 3.69039 2.84 4.75706 2.84 6.09039C2.84 6.86372 3.08 7.71706 3.56 8.65039C5.02667 7.18372 6.64 6.45039 8.4 6.45039C8.77333 6.45039 9.13333 6.49039 9.48 6.57039C9.82667 6.62372 10.1733 6.73039 10.52 6.89039C10.6267 6.91706 10.68 6.98372 10.68 7.09039C10.68 7.17039 10.64 7.23706 10.56 7.29039C10.48 7.31706 10.3733 7.30372 10.24 7.25039C9.76 7.06372 9.21333 6.97039 8.6 6.97039C6.84 6.97039 5.26667 7.73039 3.88 9.25039L3.96 9.37039C5.10667 11.0771 6.56 12.4371 8.32 13.4504ZM17.4 15.6904C19.9867 15.6904 22.48 15.2771 24.88 14.4504C24.4 12.7971 23.6267 11.2637 22.56 9.85039C21.52 8.41039 20.3333 7.14372 19 6.05039C17.4 7.19706 15.8667 8.49039 14.4 9.93039C12.96 11.3704 11.6933 12.9037 10.6 14.5304C11.6667 14.9304 12.7733 15.2237 13.92 15.4104C15.0667 15.5971 16.2267 15.6904 17.4 15.6904ZM4 22.1704C4.10667 21.6904 4.22667 21.1971 4.36 20.6904C4.52 20.1837 4.69333 19.6637 4.88 19.1304C5.54667 17.4504 6.52 15.7837 7.8 14.1304C6.89333 13.6237 6.05333 13.0371 5.28 12.3704C4.53333 11.7037 3.85333 10.9437 3.24 10.0904L3.08 10.2904C1.90667 11.7571 1.32 13.5037 1.32 15.5304C1.32 16.6504 1.53333 17.7837 1.96 18.9304C2.38667 20.0771 3.06667 21.1571 4 22.1704ZM14.52 26.6104C16.44 26.6104 18.2267 26.2504 19.88 25.5304C21.5333 24.8104 22.8533 23.7837 23.84 22.4504C24.8533 21.1171 25.36 19.5304 25.36 17.6904C25.36 17.3971 25.3467 17.1037 25.32 16.8104C25.2933 16.5171 25.2533 16.2104 25.2 15.8904L25.04 15.0504C22.5333 15.9037 19.8933 16.3304 17.12 16.3304C15.92 16.3304 14.7333 16.2371 13.56 16.0504C12.3867 15.8637 11.2533 15.5837 10.16 15.2104C9.12 16.8371 8.29333 18.5571 7.68 20.3704C7.46667 21.1171 7.28 21.8237 7.12 22.4904C6.96 23.1571 6.85333 23.7971 6.8 24.4104C6.90667 24.4904 7.01333 24.5704 7.12 24.6504C7.22667 24.7037 7.33333 24.7571 7.44 24.8104C8.58667 25.4237 9.76 25.8771 10.96 26.1704C12.16 26.4637 13.3467 26.6104 14.52 26.6104ZM31.7372 30.8504C30.8572 30.8504 30.2439 30.6104 29.8972 30.1304C29.5772 29.6237 29.4172 29.0104 29.4172 28.2904C29.4172 27.5171 29.5505 26.7037 29.8172 25.8504C30.0839 24.9704 30.3372 24.2637 30.5772 23.7304C31.2972 22.0504 32.2039 20.7437 33.2972 19.8104C34.3905 18.8504 35.3905 18.3704 36.2972 18.3704C37.0705 18.3704 37.5905 18.5971 37.8572 19.0504C38.1505 19.5037 38.2972 20.0637 38.2972 20.7304C38.2972 21.4237 38.1772 22.1571 37.9372 22.9304C37.7239 23.6771 37.4839 24.3171 37.2172 24.8504C36.8972 25.5171 36.5639 26.1437 36.2172 26.7304C35.8705 27.3171 35.5105 27.8504 35.1372 28.3304C35.3772 28.5437 35.6705 28.6504 36.0172 28.6504C36.5505 28.6504 37.0705 28.3971 37.5772 27.8904C38.1105 27.3837 38.6039 26.7571 39.0572 26.0104C39.5372 25.2637 39.9505 24.5437 40.2972 23.8504C40.6705 23.1571 40.9505 22.6371 41.1372 22.2904C41.1905 22.2104 41.2439 22.1704 41.2972 22.1704C41.3505 22.1704 41.4039 22.2237 41.4572 22.3304C41.5105 22.4104 41.5105 22.5037 41.4572 22.6104C41.0305 23.5171 40.4972 24.5304 39.8572 25.6504C39.2439 26.7704 38.5505 27.6904 37.7772 28.4104C37.4572 28.7037 37.1505 28.9171 36.8572 29.0504C36.5639 29.1837 36.2972 29.2504 36.0572 29.2504C35.6039 29.2504 35.2039 29.0771 34.8572 28.7304C34.3505 29.3971 33.8305 29.9171 33.2972 30.2904C32.7639 30.6637 32.2439 30.8504 31.7372 30.8504ZM32.2172 30.2504C32.5105 30.2504 32.8572 30.0771 33.2572 29.7304C33.6572 29.3571 34.0705 28.8771 34.4972 28.2904C34.4972 28.2904 34.4172 28.1571 34.2572 27.8904C34.1239 27.6237 34.0572 27.2237 34.0572 26.6904C34.0572 26.4771 34.0705 26.2504 34.0972 26.0104C34.1239 25.7437 34.1905 25.4771 34.2972 25.2104C34.4839 24.6771 34.7105 24.2904 34.9772 24.0504C35.2439 23.7837 35.5105 23.6504 35.7772 23.6504C36.0172 23.6504 36.2039 23.7704 36.3372 24.0104C36.4972 24.2237 36.5372 24.5437 36.4572 24.9704C36.8305 24.1437 37.1372 23.3437 37.3772 22.5704C37.6172 21.7704 37.7372 21.0771 37.7372 20.4904C37.7372 20.0371 37.6439 19.6771 37.4572 19.4104C37.2972 19.1171 37.0039 18.9704 36.5772 18.9704C36.2039 18.9704 35.7772 19.2104 35.2972 19.6904C34.8172 20.1437 34.3239 20.7571 33.8172 21.5304C33.3372 22.2771 32.8839 23.0904 32.4572 23.9704C32.0572 24.8504 31.7239 25.7171 31.4572 26.5704C31.2172 27.3971 31.0972 28.1171 31.0972 28.7304C31.0972 29.1837 31.1772 29.5571 31.3372 29.8504C31.5239 30.1171 31.8172 30.2504 32.2172 30.2504ZM48.2591 30.8504C47.1391 30.8504 46.5791 30.2237 46.5791 28.9704C46.5791 28.4904 46.6724 27.9171 46.8591 27.2504C47.0457 26.5837 47.3391 25.8504 47.7391 25.0504C47.9524 24.5971 48.2324 24.0637 48.5791 23.4504C48.9524 22.8104 49.2857 22.1837 49.5791 21.5704C49.8724 20.9571 50.0191 20.4771 50.0191 20.1304C50.0191 19.7837 49.8324 19.6104 49.4591 19.6104C48.9524 19.6104 48.4191 19.8904 47.8591 20.4504C47.3257 20.9837 46.7924 21.6771 46.2591 22.5304C45.7257 23.3837 45.2191 24.2771 44.7391 25.2104C44.2591 26.1437 43.8457 27.0237 43.4991 27.8504C43.1524 28.6504 42.8991 29.2637 42.7391 29.6904C42.5791 30.0904 42.3524 30.3437 42.0591 30.4504C41.7657 30.5571 41.4457 30.6104 41.0991 30.6104C40.7791 30.6104 40.4724 30.6637 40.1791 30.7704C40.5524 29.9171 40.8591 29.2237 41.0991 28.6904C41.3391 28.1571 41.5924 27.6237 41.8591 27.0904C42.1257 26.5304 42.4457 25.7837 42.8191 24.8504C43.0324 24.3704 43.2724 23.8237 43.5391 23.2104C43.8057 22.5704 44.0324 21.9571 44.2191 21.3704C44.4324 20.7571 44.5391 20.2771 44.5391 19.9304C44.5391 19.5304 44.4057 19.3304 44.1391 19.3304C43.8191 19.3304 43.4991 19.5304 43.1791 19.9304C42.8591 20.3304 42.5657 20.7837 42.2991 21.2904C42.0591 21.7704 41.8591 22.1571 41.6991 22.4504C41.2991 23.2237 40.8991 23.9837 40.4991 24.7304C40.0991 25.4771 39.6457 26.1971 39.1391 26.8904H39.0991C39.0191 26.8904 38.9257 26.8637 38.8191 26.8104C38.7391 26.7571 38.7124 26.7171 38.7391 26.6904C39.1924 25.9704 39.6191 25.2504 40.0191 24.5304C40.4457 23.8104 40.8324 23.0904 41.1791 22.3704C41.4724 21.8104 41.7924 21.2237 42.1391 20.6104C42.4857 19.9704 42.8857 19.4371 43.3391 19.0104C43.7924 18.5837 44.3124 18.3704 44.8991 18.3704C45.1657 18.3704 45.4724 18.4371 45.8191 18.5704C46.1924 18.7304 46.3791 19.0904 46.3791 19.6504C46.3791 19.9437 46.3257 20.3037 46.2191 20.7304C46.1124 21.1571 45.9657 21.6371 45.7791 22.1704C46.4724 21.1837 47.2057 20.3437 47.9791 19.6504C48.7524 18.9304 49.4591 18.5704 50.0991 18.5704C51.1124 18.5704 51.6191 19.0504 51.6191 20.0104C51.6191 20.5971 51.4457 21.3171 51.0991 22.1704C50.9924 22.4637 50.7924 22.9304 50.4991 23.5704C50.2324 24.1837 49.9524 24.8771 49.6591 25.6504C49.3924 26.3971 49.1524 27.1171 48.9391 27.8104C48.7257 28.5037 48.6191 29.0771 48.6191 29.5304C48.6191 30.0104 48.7657 30.2504 49.0591 30.2504C49.2457 30.2504 49.4857 30.1704 49.7791 30.0104C50.0991 29.8237 50.4724 29.5304 50.8991 29.1304C51.6724 28.4371 52.3924 27.5571 53.0591 26.4904C53.7524 25.4237 54.5657 23.9971 55.4991 22.2104C55.4991 22.1571 55.5257 22.1304 55.5791 22.1304C55.6591 22.1304 55.7391 22.1704 55.8191 22.2504C55.8991 22.3304 55.9124 22.3971 55.8591 22.4504C54.8991 24.3171 54.0191 25.8771 53.2191 27.1304C52.4457 28.3571 51.6591 29.2904 50.8591 29.9304C50.0857 30.5437 49.2191 30.8504 48.2591 30.8504ZM50.2378 46.6504C49.8111 46.6504 49.4778 46.5037 49.2378 46.2104C48.9711 45.9437 48.8378 45.5304 48.8378 44.9704C48.8378 44.5171 48.9445 43.9837 49.1578 43.3704C49.3445 42.7571 49.6511 42.0637 50.0778 41.2904C50.6111 40.3304 51.2378 39.3437 51.9578 38.3304C52.6778 37.3171 53.4378 36.3571 54.2378 35.4504C55.0378 34.5437 55.7845 33.7571 56.4778 33.0904C57.1978 32.4237 57.7978 31.9704 58.2778 31.7304C58.3845 31.4637 58.5311 31.0371 58.7178 30.4504C58.9311 29.8637 59.1445 29.2504 59.3578 28.6104C59.5978 27.9437 59.7978 27.3837 59.9578 26.9304C60.1178 26.4771 60.1978 26.2504 60.1978 26.2504C59.8245 26.9171 59.3978 27.6104 58.9178 28.3304C58.4645 29.0237 57.9711 29.6237 57.4378 30.1304C56.9045 30.6104 56.3311 30.8504 55.7178 30.8504C54.8111 30.8504 54.1845 30.5971 53.8378 30.0904C53.5178 29.5571 53.3578 28.9304 53.3578 28.2104C53.3578 27.4371 53.4911 26.6237 53.7578 25.7704C54.0245 24.9171 54.2778 24.2371 54.5178 23.7304C55.3711 21.9437 56.5578 20.5837 58.0778 19.6504C59.6245 18.6904 61.2111 18.2104 62.8378 18.2104C63.0511 18.2104 63.2645 18.2104 63.4778 18.2104C63.7178 18.2104 63.9445 18.2371 64.1578 18.2904C64.6911 18.3704 64.9578 18.4371 64.9578 18.4904C64.9578 18.5437 64.7578 18.5971 64.3578 18.6504C63.9845 18.7037 63.7045 18.7304 63.5178 18.7304C62.2111 18.7304 61.0378 19.0771 59.9978 19.7704C58.9845 20.4637 58.1178 21.3437 57.3978 22.4104C56.6778 23.4771 56.1178 24.5704 55.7178 25.6904C55.3445 26.7837 55.1578 27.7304 55.1578 28.5304C55.1578 29.0371 55.2378 29.4504 55.3978 29.7704C55.5845 30.0904 55.8511 30.2504 56.1978 30.2504C56.5711 30.2504 56.9978 29.9971 57.4778 29.4904C57.9578 28.9837 58.4245 28.3704 58.8778 27.6504C59.3311 26.9037 59.7445 26.1837 60.1178 25.4904C60.4911 24.7704 60.7711 24.2237 60.9578 23.8504L62.6778 20.2504C63.1311 20.1437 63.6378 20.0104 64.1978 19.8504C64.7578 19.6904 65.2511 19.5171 65.6778 19.3304C65.2511 19.8104 64.7845 20.4771 64.2778 21.3304C63.7711 22.1571 63.3311 22.9837 62.9578 23.8104C62.5578 24.7437 62.2111 25.5971 61.9178 26.3704C61.6511 27.1171 61.3845 27.8504 61.1178 28.5704C60.8778 29.2904 60.5978 30.0904 60.2778 30.9704C61.5578 30.1704 62.5711 29.3837 63.3178 28.6104C64.0911 27.8104 64.7578 26.9437 65.3178 26.0104C65.9045 25.0771 66.5178 24.0104 67.1578 22.8104C67.2111 22.7304 67.2778 22.6904 67.3578 22.6904C67.4378 22.6904 67.5045 22.7304 67.5578 22.8104C67.6111 22.8637 67.6111 22.9437 67.5578 23.0504C66.8378 24.3837 66.1578 25.5437 65.5178 26.5304C64.9045 27.5171 64.1711 28.4104 63.3178 29.2104C62.4911 30.0104 61.3978 30.8237 60.0378 31.6504C59.5845 32.8504 59.0511 34.1971 58.4378 35.6904C57.8245 37.1837 57.1578 38.6371 56.4378 40.0504C55.7445 41.4904 55.0111 42.7437 54.2378 43.8104C53.5711 44.7437 52.8778 45.4504 52.1578 45.9304C51.4111 46.4104 50.7711 46.6504 50.2378 46.6504ZM50.3578 46.0904C50.6778 46.0904 51.0911 45.8504 51.5978 45.3704C52.0778 44.8904 52.6245 44.1171 53.2378 43.0504C53.7445 42.1437 54.2511 41.1437 54.7578 40.0504C55.2911 38.9837 55.7845 37.9304 56.2378 36.8904C56.6911 35.8504 57.0778 34.9437 57.3978 34.1704C57.7178 33.3971 57.9311 32.8771 58.0378 32.6104C57.4778 32.9304 56.8645 33.4237 56.1978 34.0904C55.5311 34.7571 54.8511 35.5171 54.1578 36.3704C53.4645 37.2237 52.8245 38.1171 52.2378 39.0504C51.6245 39.9837 51.1045 40.8771 50.6778 41.7304C50.3311 42.3971 50.0911 43.0104 49.9578 43.5704C49.7978 44.1304 49.7178 44.5971 49.7178 44.9704C49.7178 45.7171 49.9311 46.0904 50.3578 46.0904ZM69.9509 30.8504C68.8309 30.8504 68.2709 30.2237 68.2709 28.9704C68.2709 28.4904 68.3643 27.9171 68.5509 27.2504C68.7376 26.5837 69.0309 25.8504 69.4309 25.0504C69.6443 24.5704 69.9376 23.9971 70.3109 23.3304C70.6843 22.6371 71.0176 21.9571 71.3109 21.2904C71.6309 20.6237 71.7909 20.0904 71.7909 19.6904C71.7909 19.2904 71.5776 19.0904 71.1509 19.0904C70.9643 19.0904 70.7243 19.1437 70.4309 19.2504C70.1376 19.3304 69.7376 19.4371 69.2309 19.5704C69.0176 20.1037 68.6709 20.8504 68.1909 21.8104C67.7376 22.7437 67.2309 23.7037 66.6709 24.6904C66.1109 25.6771 65.5776 26.5304 65.0709 27.2504C65.0709 27.2504 65.0576 27.2637 65.0309 27.2904C65.0309 27.2904 65.0043 27.2904 64.9509 27.2904C64.8976 27.2904 64.8176 27.2771 64.7109 27.2504C64.6309 27.1971 64.6043 27.1571 64.6309 27.1304C65.0576 26.5171 65.4976 25.8104 65.9509 25.0104C66.4043 24.1837 66.8309 23.3704 67.2309 22.5704C67.6576 21.7704 68.0043 21.0904 68.2709 20.5304C68.5643 19.9437 68.7243 19.5971 68.7509 19.4904C68.3509 19.3571 68.0309 19.0504 67.7909 18.5704C67.5776 18.0637 67.4709 17.5571 67.4709 17.0504C67.4709 16.5971 67.5776 16.2104 67.7909 15.8904C68.0043 15.5704 68.3243 15.4104 68.7509 15.4104C69.0709 15.4104 69.2843 15.5837 69.3909 15.9304C69.5243 16.2504 69.5909 16.6371 69.5909 17.0904C69.5909 17.6771 69.5243 18.2637 69.3909 18.8504C69.3909 18.8504 69.5376 18.8237 69.8309 18.7704C70.1243 18.7171 70.4709 18.6771 70.8709 18.6504C71.2709 18.5971 71.6176 18.5704 71.9109 18.5704C72.7909 18.5704 73.2309 18.9971 73.2309 19.8504C73.2309 20.3837 73.0843 21.0771 72.7909 21.9304C72.4976 22.7571 72.1243 23.7171 71.6709 24.8104C70.7643 26.9704 70.3109 28.4904 70.3109 29.3704C70.3109 29.9037 70.4843 30.1704 70.8309 30.1704C71.2576 30.1704 71.8576 29.8237 72.6309 29.1304C73.4043 28.4371 74.1109 27.5704 74.7509 26.5304C75.4176 25.4637 76.2309 24.0371 77.1909 22.2504C77.2176 22.1971 77.2576 22.1704 77.3109 22.1704C77.3909 22.1704 77.4576 22.2104 77.5109 22.2904C77.5909 22.3437 77.6176 22.3971 77.5909 22.4504C76.1243 25.2237 74.8443 27.3171 73.7509 28.7304C72.6576 30.1437 71.3909 30.8504 69.9509 30.8504ZM77.4366 30.8504C76.5299 30.8504 75.9032 30.5971 75.5566 30.0904C75.2366 29.5837 75.0766 28.9571 75.0766 28.2104C75.0766 27.4371 75.2099 26.6237 75.4766 25.7704C75.7432 24.9171 75.9966 24.2371 76.2366 23.7304C77.0899 21.9437 78.2766 20.5837 79.7966 19.6504C81.3432 18.6904 82.9299 18.2104 84.5566 18.2104C84.7699 18.2104 84.9832 18.2104 85.1966 18.2104C85.4366 18.2104 85.6632 18.2371 85.8766 18.2904C86.4099 18.3704 86.6766 18.4371 86.6766 18.4904C86.6766 18.5437 86.4766 18.5971 86.0766 18.6504C85.7032 18.7037 85.4232 18.7304 85.2366 18.7304C83.9299 18.7304 82.7566 19.0771 81.7166 19.7704C80.7032 20.4637 79.8366 21.3437 79.1166 22.4104C78.3966 23.4771 77.8366 24.5704 77.4366 25.6904C77.0632 26.7837 76.8766 27.7304 76.8766 28.5304C76.8766 29.0371 76.9566 29.4504 77.1166 29.7704C77.3032 30.0904 77.5699 30.2504 77.9166 30.2504C78.2899 30.2504 78.7166 29.9971 79.1966 29.4904C79.6766 28.9837 80.1432 28.3704 80.5966 27.6504C81.0499 26.9037 81.4632 26.1837 81.8366 25.4904C82.2099 24.7704 82.4899 24.2237 82.6766 23.8504L84.3966 20.2504C84.8499 20.1437 85.3032 20.0237 85.7566 19.8904C86.2366 19.7304 86.6899 19.5571 87.1166 19.3704C86.6632 20.1437 86.2232 20.9571 85.7966 21.8104C85.3966 22.6637 84.9832 23.5037 84.5566 24.3304C84.2366 24.9437 83.9166 25.6637 83.5966 26.4904C83.3032 27.3171 83.1566 28.0637 83.1566 28.7304V28.8904C83.1566 29.1037 83.1832 29.3437 83.2366 29.6104C83.2899 29.8504 83.4366 29.9704 83.6766 29.9704C83.9699 29.9704 84.3432 29.7971 84.7966 29.4504C85.2499 29.0771 85.5699 28.7971 85.7566 28.6104C86.6099 27.7571 87.3432 26.8104 87.9566 25.7704C88.5966 24.7304 89.1832 23.6771 89.7166 22.6104C89.7699 22.5571 89.8099 22.5304 89.8366 22.5304C90.0499 22.5304 90.1299 22.6371 90.0766 22.8504C90.0766 22.8504 90.0099 22.9704 89.8766 23.2104C89.7699 23.4504 89.7032 23.5837 89.6766 23.6104C89.1699 24.5437 88.6632 25.4371 88.1566 26.2904C87.6499 27.1437 87.0499 27.9571 86.3566 28.7304C85.9299 29.1571 85.4099 29.6104 84.7966 30.0904C84.1832 30.5704 83.5699 30.8104 82.9566 30.8104C82.3699 30.8104 81.9566 30.5837 81.7166 30.1304C81.4766 29.6504 81.3566 29.1171 81.3566 28.5304C81.3566 28.1571 81.3832 27.7971 81.4366 27.4504C81.5166 27.0771 81.5966 26.7571 81.6766 26.4904C81.4899 26.9704 81.1566 27.5571 80.6766 28.2504C80.2232 28.9437 79.7032 29.5571 79.1166 30.0904C78.5566 30.5971 77.9966 30.8504 77.4366 30.8504ZM89.4919 30.8104C88.8785 30.8104 88.4385 30.5837 88.1719 30.1304C87.9052 29.6771 87.7719 29.1437 87.7719 28.5304C87.7719 27.7037 87.9452 26.8771 88.2919 26.0504C88.8519 24.5837 89.3719 23.3171 89.8519 22.2504C90.3585 21.1837 90.8652 20.1571 91.3719 19.1704H90.2919C90.1852 19.1704 90.1319 19.1171 90.1319 19.0104C90.1319 18.9304 90.1719 18.8371 90.2519 18.7304C90.3319 18.6237 90.4252 18.5704 90.5319 18.5704H91.6919L94.5719 12.8104C95.0252 12.7037 95.5052 12.5837 96.0119 12.4504C96.5452 12.2904 97.0252 12.1171 97.4519 11.9304C97.0252 12.6504 96.4385 13.5971 95.6919 14.7704C94.9452 15.9171 94.1852 17.1837 93.4119 18.5704H96.2519C96.3585 18.5704 96.4119 18.6237 96.4119 18.7304C96.4119 18.8104 96.3719 18.9037 96.2919 19.0104C96.2119 19.1171 96.1185 19.1704 96.0119 19.1704H93.0519C92.2252 20.6371 91.4785 22.1571 90.8119 23.7304C90.1719 25.3037 89.7452 26.7837 89.5319 28.1704C89.5052 28.2771 89.4919 28.3971 89.4919 28.5304C89.4919 28.6371 89.4919 28.7304 89.4919 28.8104C89.4919 29.5304 89.7319 29.8904 90.2119 29.8904C90.5052 29.8904 90.8385 29.7704 91.2119 29.5304C91.5852 29.2637 91.9452 28.9571 92.2919 28.6104C93.1452 27.7571 93.8785 26.8104 94.4919 25.7704C95.1319 24.7304 95.7185 23.6771 96.2519 22.6104C96.3052 22.5571 96.3452 22.5304 96.3719 22.5304C96.5585 22.5304 96.6519 22.6371 96.6519 22.8504C96.6252 22.8504 96.5452 22.9704 96.4119 23.2104C96.3052 23.4504 96.2385 23.5837 96.2119 23.6104C95.7319 24.5437 95.2385 25.4371 94.7319 26.2904C94.2252 27.1437 93.6119 27.9571 92.8919 28.7304C92.4919 29.1571 91.9852 29.6104 91.3719 30.0904C90.7585 30.5704 90.1319 30.8104 89.4919 30.8104ZM98.0944 30.8504C97.0544 30.8504 96.5344 30.2904 96.5344 29.1704C96.5344 28.2371 96.9477 26.8771 97.7744 25.0904C98.0144 24.6104 98.281 24.0371 98.5744 23.3704C98.8944 22.7037 99.161 22.0637 99.3744 21.4504C99.6144 20.8104 99.7344 20.2904 99.7344 19.8904C99.7344 19.5171 99.601 19.3304 99.3344 19.3304C99.0144 19.3304 98.6944 19.5304 98.3744 19.9304C98.0544 20.3304 97.761 20.7837 97.4944 21.2904C97.2544 21.7704 97.0544 22.1571 96.8944 22.4504C96.4944 23.2237 96.041 24.0637 95.5344 24.9704C95.0277 25.8771 94.521 26.6771 94.0144 27.3704H93.9744C93.921 27.3704 93.841 27.3437 93.7344 27.2904C93.6544 27.2104 93.6277 27.1571 93.6544 27.1304C94.161 26.4371 94.6544 25.6371 95.1344 24.7304C95.641 23.8237 96.0677 22.9971 96.4144 22.2504C96.7077 21.6904 97.0144 21.1171 97.3344 20.5304C97.681 19.9171 98.081 19.4104 98.5344 19.0104C98.9877 18.5837 99.5077 18.3704 100.094 18.3704C101.081 18.3704 101.574 18.7571 101.574 19.5304C101.574 20.0371 101.414 20.7171 101.094 21.5704C100.774 22.4237 100.348 23.5037 99.8144 24.8104C99.3344 25.9304 98.9744 26.8771 98.7344 27.6504C98.521 28.3971 98.4144 28.9837 98.4144 29.4104C98.4144 29.9171 98.5877 30.1704 98.9344 30.1704C99.3077 30.1704 99.9077 29.8237 100.734 29.1304C101.454 28.4904 102.148 27.7037 102.814 26.7704C103.481 25.8104 104.201 24.5171 104.974 22.8904C105.188 22.4637 105.401 21.9304 105.614 21.2904C105.854 20.6237 106.054 20.0371 106.214 19.5304C106.401 19.0237 106.494 18.7704 106.494 18.7704C106.948 18.6637 107.454 18.5304 108.014 18.3704C108.574 18.1837 109.068 17.9971 109.494 17.8104C109.228 18.0771 108.841 18.6771 108.334 19.6104C107.854 20.5437 107.348 21.6104 106.814 22.8104C106.308 23.9837 105.868 25.1304 105.494 26.2504C105.041 27.5304 104.814 28.5571 104.814 29.3304C104.814 29.9704 105.014 30.2904 105.414 30.2904C105.601 30.2904 105.828 30.2104 106.094 30.0504C106.388 29.8904 106.734 29.6371 107.134 29.2904C107.481 28.9971 107.801 28.6504 108.094 28.2504C108.414 27.8504 108.721 27.4371 109.014 27.0104C109.414 26.4237 109.828 25.7437 110.254 24.9704C110.708 24.1971 111.201 23.2904 111.734 22.2504C111.788 22.1704 111.828 22.1304 111.854 22.1304C111.934 22.1304 112.001 22.1704 112.054 22.2504C112.134 22.3037 112.161 22.3571 112.134 22.4104C110.694 25.2371 109.428 27.3571 108.334 28.7704C107.241 30.1571 106.054 30.8504 104.774 30.8504C104.268 30.8504 103.894 30.6771 103.654 30.3304C103.441 29.9837 103.334 29.5171 103.334 28.9304C103.334 28.4771 103.388 27.9704 103.494 27.4104C103.601 26.8504 103.748 26.2771 103.934 25.6904C102.948 27.3971 102.001 28.6904 101.094 29.5704C100.188 30.4237 99.1877 30.8504 98.0944 30.8504ZM112.168 31.0104C111.661 31.0104 111.208 30.8104 110.808 30.4104C110.408 29.9837 110.208 29.2371 110.208 28.1704C110.208 27.4504 110.354 26.5171 110.648 25.3704C110.941 24.2237 111.328 22.9571 111.808 21.5704C112.314 20.1837 112.861 18.7704 113.448 17.3304C114.061 15.8637 114.674 14.4771 115.288 13.1704C115.928 11.8371 116.514 10.6504 117.048 9.61039C117.608 8.57039 118.088 7.78372 118.488 7.25039C119.181 6.31706 119.888 5.61039 120.608 5.13039C121.354 4.62372 121.994 4.37039 122.528 4.37039C123.408 4.37039 123.848 4.91706 123.848 6.01039C123.848 6.59706 123.674 7.35706 123.328 8.29039C122.981 9.19706 122.408 10.2904 121.608 11.5704C121.021 12.5037 120.354 13.4904 119.608 14.5304C118.888 15.5437 118.154 16.5304 117.408 17.4904C116.661 18.4504 115.941 19.3171 115.248 20.0904C114.581 20.8371 114.008 21.4237 113.528 21.8504C113.528 21.8504 113.434 22.1171 113.248 22.6504C113.061 23.1571 112.834 23.8104 112.568 24.6104C112.328 25.3837 112.114 26.1837 111.928 27.0104C111.741 27.8371 111.648 28.5571 111.648 29.1704C111.648 29.5704 111.701 29.9037 111.808 30.1704C111.941 30.4104 112.141 30.5304 112.408 30.5304C112.808 30.5304 113.354 30.2637 114.048 29.7304C114.474 29.4104 114.888 29.0371 115.288 28.6104C115.688 28.1571 116.034 27.7171 116.328 27.2904C116.648 26.8637 116.861 26.5571 116.968 26.3704C117.208 25.9971 117.488 25.5171 117.808 24.9304C118.154 24.3437 118.474 23.7971 118.768 23.2904C119.061 22.7571 119.234 22.4237 119.288 22.2904C119.341 22.2371 119.381 22.2104 119.408 22.2104C119.461 22.2104 119.528 22.2504 119.608 22.3304C119.688 22.3837 119.701 22.4371 119.648 22.4904C119.008 23.8237 118.408 24.9571 117.848 25.8904C117.314 26.8237 116.768 27.6237 116.208 28.2904C115.648 28.9304 115.021 29.5437 114.328 30.1304C114.034 30.3971 113.688 30.6104 113.288 30.7704C112.914 30.9304 112.541 31.0104 112.168 31.0104ZM113.808 20.9704C114.448 20.2237 115.208 19.2904 116.088 18.1704C116.968 17.0237 117.861 15.8237 118.768 14.5704C119.674 13.3171 120.461 12.1437 121.128 11.0504C121.794 9.95706 122.261 8.99706 122.528 8.17039C122.821 7.34372 122.968 6.67706 122.968 6.17039C122.968 5.45039 122.741 5.09039 122.288 5.09039C121.994 5.09039 121.594 5.33039 121.088 5.81039C120.608 6.26372 120.088 6.99706 119.528 8.01039C119.128 8.73039 118.688 9.59706 118.208 10.6104C117.728 11.6237 117.248 12.6904 116.768 13.8104C116.288 14.9304 115.834 15.9971 115.408 17.0104C114.981 17.9971 114.621 18.8504 114.328 19.5704C114.061 20.2904 113.888 20.7571 113.808 20.9704ZM119.546 30.8504C118.639 30.8504 118.013 30.5971 117.666 30.0904C117.346 29.5837 117.186 28.9571 117.186 28.2104C117.186 27.4371 117.319 26.6237 117.586 25.7704C117.853 24.9171 118.106 24.2371 118.346 23.7304C119.199 21.9437 120.386 20.5837 121.906 19.6504C123.453 18.6904 125.039 18.2104 126.666 18.2104C126.879 18.2104 127.093 18.2104 127.306 18.2104C127.546 18.2104 127.773 18.2371 127.986 18.2904C128.519 18.3704 128.786 18.4371 128.786 18.4904C128.786 18.5437 128.586 18.5971 128.186 18.6504C127.813 18.7037 127.533 18.7304 127.346 18.7304C126.039 18.7304 124.866 19.0771 123.826 19.7704C122.813 20.4637 121.946 21.3437 121.226 22.4104C120.506 23.4771 119.946 24.5704 119.546 25.6904C119.173 26.7837 118.986 27.7304 118.986 28.5304C118.986 29.0371 119.066 29.4504 119.226 29.7704C119.413 30.0904 119.679 30.2504 120.026 30.2504C120.399 30.2504 120.826 29.9971 121.306 29.4904C121.786 28.9837 122.253 28.3704 122.706 27.6504C123.159 26.9037 123.573 26.1837 123.946 25.4904C124.319 24.7704 124.599 24.2237 124.786 23.8504L126.506 20.2504C126.959 20.1437 127.413 20.0237 127.866 19.8904C128.346 19.7304 128.799 19.5571 129.226 19.3704C128.773 20.1437 128.333 20.9571 127.906 21.8104C127.506 22.6637 127.093 23.5037 126.666 24.3304C126.346 24.9437 126.026 25.6637 125.706 26.4904C125.413 27.3171 125.266 28.0637 125.266 28.7304V28.8904C125.266 29.1037 125.293 29.3437 125.346 29.6104C125.399 29.8504 125.546 29.9704 125.786 29.9704C126.079 29.9704 126.453 29.7971 126.906 29.4504C127.359 29.0771 127.679 28.7971 127.866 28.6104C128.719 27.7571 129.453 26.8104 130.066 25.7704C130.706 24.7304 131.293 23.6771 131.826 22.6104C131.879 22.5571 131.919 22.5304 131.946 22.5304C132.159 22.5304 132.239 22.6371 132.186 22.8504C132.186 22.8504 132.119 22.9704 131.986 23.2104C131.879 23.4504 131.813 23.5837 131.786 23.6104C131.279 24.5437 130.773 25.4371 130.266 26.2904C129.759 27.1437 129.159 27.9571 128.466 28.7304C128.039 29.1571 127.519 29.6104 126.906 30.0904C126.293 30.5704 125.679 30.8104 125.066 30.8104C124.479 30.8104 124.066 30.5837 123.826 30.1304C123.586 29.6504 123.466 29.1171 123.466 28.5304C123.466 28.1571 123.493 27.7971 123.546 27.4504C123.626 27.0771 123.706 26.7571 123.786 26.4904C123.599 26.9704 123.266 27.5571 122.786 28.2504C122.333 28.9437 121.813 29.5571 121.226 30.0904C120.666 30.5971 120.106 30.8504 119.546 30.8504ZM131.601 30.8104C130.988 30.8104 130.548 30.5837 130.281 30.1304C130.015 29.6771 129.881 29.1437 129.881 28.5304C129.881 27.7037 130.055 26.8771 130.401 26.0504C130.961 24.5837 131.481 23.3171 131.961 22.2504C132.468 21.1837 132.975 20.1571 133.481 19.1704H132.401C132.295 19.1704 132.241 19.1171 132.241 19.0104C132.241 18.9304 132.281 18.8371 132.361 18.7304C132.441 18.6237 132.535 18.5704 132.641 18.5704H133.801L136.681 12.8104C137.135 12.7037 137.615 12.5837 138.121 12.4504C138.655 12.2904 139.135 12.1171 139.561 11.9304C139.135 12.6504 138.548 13.5971 137.801 14.7704C137.055 15.9171 136.295 17.1837 135.521 18.5704H138.361C138.468 18.5704 138.521 18.6237 138.521 18.7304C138.521 18.8104 138.481 18.9037 138.401 19.0104C138.321 19.1171 138.228 19.1704 138.121 19.1704H135.161C134.335 20.6371 133.588 22.1571 132.921 23.7304C132.281 25.3037 131.855 26.7837 131.641 28.1704C131.615 28.2771 131.601 28.3971 131.601 28.5304C131.601 28.6371 131.601 28.7304 131.601 28.8104C131.601 29.5304 131.841 29.8904 132.321 29.8904C132.615 29.8904 132.948 29.7704 133.321 29.5304C133.695 29.2637 134.055 28.9571 134.401 28.6104C135.255 27.7571 135.988 26.8104 136.601 25.7704C137.241 24.7304 137.828 23.6771 138.361 22.6104C138.415 22.5571 138.455 22.5304 138.481 22.5304C138.668 22.5304 138.761 22.6371 138.761 22.8504C138.735 22.8504 138.655 22.9704 138.521 23.2104C138.415 23.4504 138.348 23.5837 138.321 23.6104C137.841 24.5437 137.348 25.4371 136.841 26.2904C136.335 27.1437 135.721 27.9571 135.001 28.7304C134.601 29.1571 134.095 29.6104 133.481 30.0904C132.868 30.5704 132.241 30.8104 131.601 30.8104ZM144.604 15.8504C144.23 15.8504 143.91 15.7304 143.644 15.4904C143.404 15.2237 143.284 14.9171 143.284 14.5704C143.284 14.1171 143.43 13.7304 143.724 13.4104C144.044 13.0904 144.417 12.9304 144.844 12.9304C145.217 12.9304 145.537 13.0637 145.804 13.3304C146.07 13.5971 146.204 13.9304 146.204 14.3304C146.204 14.7571 146.044 15.1171 145.724 15.4104C145.404 15.7037 145.03 15.8504 144.604 15.8504ZM140.204 30.8504C139.724 30.8504 139.337 30.6771 139.044 30.3304C138.777 29.9571 138.644 29.4771 138.644 28.8904C138.644 28.1437 138.79 27.3437 139.084 26.4904C139.404 25.6371 139.764 24.7837 140.164 23.9304C140.59 23.0504 140.964 22.2237 141.284 21.4504C141.417 21.0771 141.537 20.7437 141.644 20.4504C141.75 20.1571 141.804 19.9171 141.804 19.7304C141.804 19.4637 141.684 19.3304 141.444 19.3304C141.124 19.3304 140.804 19.5304 140.484 19.9304C140.164 20.3304 139.87 20.7837 139.604 21.2904C139.364 21.7704 139.164 22.1571 139.004 22.4504C138.604 23.2237 138.164 24.0237 137.684 24.8504C137.23 25.6771 136.764 26.4371 136.284 27.1304C136.284 27.1571 136.257 27.1704 136.204 27.1704C136.15 27.1704 136.084 27.1304 136.004 27.0504C135.924 26.9704 135.897 26.9171 135.924 26.8904C136.43 26.1704 136.897 25.4104 137.324 24.6104C137.777 23.7837 138.19 22.9971 138.564 22.2504C138.83 21.6904 139.124 21.1171 139.444 20.5304C139.79 19.9171 140.19 19.4104 140.644 19.0104C141.097 18.5837 141.617 18.3704 142.204 18.3704C142.47 18.3704 142.777 18.4371 143.124 18.5704C143.524 18.7304 143.724 19.0771 143.724 19.6104C143.724 19.8771 143.67 20.1971 143.564 20.5704C143.484 20.9171 143.364 21.3171 143.204 21.7704C142.857 22.6771 142.47 23.5971 142.044 24.5304C141.644 25.4371 141.27 26.3571 140.924 27.2904C140.657 28.0104 140.524 28.6504 140.524 29.2104C140.524 29.8237 140.724 30.1304 141.124 30.1304C141.497 30.1304 142.07 29.7971 142.844 29.1304C143.617 28.4371 144.337 27.5704 145.004 26.5304C145.67 25.4637 146.47 24.0371 147.404 22.2504C147.43 22.1971 147.484 22.1704 147.564 22.1704C147.617 22.1704 147.67 22.2104 147.724 22.2904C147.804 22.3437 147.83 22.3971 147.804 22.4504C146.39 25.1971 145.124 27.2904 144.004 28.7304C142.884 30.1437 141.617 30.8504 140.204 30.8504ZM147.792 30.8504C146.912 30.8504 146.299 30.6104 145.952 30.1304C145.632 29.6237 145.472 29.0104 145.472 28.2904C145.472 27.5171 145.605 26.7037 145.872 25.8504C146.139 24.9704 146.392 24.2637 146.632 23.7304C147.352 22.0504 148.259 20.7437 149.352 19.8104C150.445 18.8504 151.445 18.3704 152.352 18.3704C153.125 18.3704 153.645 18.5971 153.912 19.0504C154.205 19.5037 154.352 20.0637 154.352 20.7304C154.352 21.4237 154.232 22.1571 153.992 22.9304C153.779 23.6771 153.539 24.3171 153.272 24.8504C152.952 25.5171 152.619 26.1437 152.272 26.7304C151.925 27.3171 151.565 27.8504 151.192 28.3304C151.432 28.5437 151.725 28.6504 152.072 28.6504C152.605 28.6504 153.125 28.3971 153.632 27.8904C154.165 27.3837 154.659 26.7571 155.112 26.0104C155.592 25.2637 156.005 24.5437 156.352 23.8504C156.725 23.1571 157.005 22.6371 157.192 22.2904C157.245 22.2104 157.299 22.1704 157.352 22.1704C157.405 22.1704 157.459 22.2237 157.512 22.3304C157.565 22.4104 157.565 22.5037 157.512 22.6104C157.085 23.5171 156.552 24.5304 155.912 25.6504C155.299 26.7704 154.605 27.6904 153.832 28.4104C153.512 28.7037 153.205 28.9171 152.912 29.0504C152.619 29.1837 152.352 29.2504 152.112 29.2504C151.659 29.2504 151.259 29.0771 150.912 28.7304C150.405 29.3971 149.885 29.9171 149.352 30.2904C148.819 30.6637 148.299 30.8504 147.792 30.8504ZM148.272 30.2504C148.565 30.2504 148.912 30.0771 149.312 29.7304C149.712 29.3571 150.125 28.8771 150.552 28.2904C150.552 28.2904 150.472 28.1571 150.312 27.8904C150.179 27.6237 150.112 27.2237 150.112 26.6904C150.112 26.4771 150.125 26.2504 150.152 26.0104C150.179 25.7437 150.245 25.4771 150.352 25.2104C150.539 24.6771 150.765 24.2904 151.032 24.0504C151.299 23.7837 151.565 23.6504 151.832 23.6504C152.072 23.6504 152.259 23.7704 152.392 24.0104C152.552 24.2237 152.592 24.5437 152.512 24.9704C152.885 24.1437 153.192 23.3437 153.432 22.5704C153.672 21.7704 153.792 21.0771 153.792 20.4904C153.792 20.0371 153.699 19.6771 153.512 19.4104C153.352 19.1171 153.059 18.9704 152.632 18.9704C152.259 18.9704 151.832 19.2104 151.352 19.6904C150.872 20.1437 150.379 20.7571 149.872 21.5304C149.392 22.2771 148.939 23.0904 148.512 23.9704C148.112 24.8504 147.779 25.7171 147.512 26.5704C147.272 27.3971 147.152 28.1171 147.152 28.7304C147.152 29.1837 147.232 29.5571 147.392 29.8504C147.579 30.1171 147.872 30.2504 148.272 30.2504ZM164.314 30.8504C163.194 30.8504 162.634 30.2237 162.634 28.9704C162.634 28.4904 162.727 27.9171 162.914 27.2504C163.1 26.5837 163.394 25.8504 163.794 25.0504C164.007 24.5971 164.287 24.0637 164.634 23.4504C165.007 22.8104 165.34 22.1837 165.634 21.5704C165.927 20.9571 166.074 20.4771 166.074 20.1304C166.074 19.7837 165.887 19.6104 165.514 19.6104C165.007 19.6104 164.474 19.8904 163.914 20.4504C163.38 20.9837 162.847 21.6771 162.314 22.5304C161.78 23.3837 161.274 24.2771 160.794 25.2104C160.314 26.1437 159.9 27.0237 159.554 27.8504C159.207 28.6504 158.954 29.2637 158.794 29.6904C158.634 30.0904 158.407 30.3437 158.114 30.4504C157.82 30.5571 157.5 30.6104 157.154 30.6104C156.834 30.6104 156.527 30.6637 156.234 30.7704C156.607 29.9171 156.914 29.2237 157.154 28.6904C157.394 28.1571 157.647 27.6237 157.914 27.0904C158.18 26.5304 158.5 25.7837 158.874 24.8504C159.087 24.3704 159.327 23.8237 159.594 23.2104C159.86 22.5704 160.087 21.9571 160.274 21.3704C160.487 20.7571 160.594 20.2771 160.594 19.9304C160.594 19.5304 160.46 19.3304 160.194 19.3304C159.874 19.3304 159.554 19.5304 159.234 19.9304C158.914 20.3304 158.62 20.7837 158.354 21.2904C158.114 21.7704 157.914 22.1571 157.754 22.4504C157.354 23.2237 156.954 23.9837 156.554 24.7304C156.154 25.4771 155.7 26.1971 155.194 26.8904H155.154C155.074 26.8904 154.98 26.8637 154.874 26.8104C154.794 26.7571 154.767 26.7171 154.794 26.6904C155.247 25.9704 155.674 25.2504 156.074 24.5304C156.5 23.8104 156.887 23.0904 157.234 22.3704C157.527 21.8104 157.847 21.2237 158.194 20.6104C158.54 19.9704 158.94 19.4371 159.394 19.0104C159.847 18.5837 160.367 18.3704 160.954 18.3704C161.22 18.3704 161.527 18.4371 161.874 18.5704C162.247 18.7304 162.434 19.0904 162.434 19.6504C162.434 19.9437 162.38 20.3037 162.274 20.7304C162.167 21.1571 162.02 21.6371 161.834 22.1704C162.527 21.1837 163.26 20.3437 164.034 19.6504C164.807 18.9304 165.514 18.5704 166.154 18.5704C167.167 18.5704 167.674 19.0504 167.674 20.0104C167.674 20.5971 167.5 21.3171 167.154 22.1704C167.047 22.4637 166.847 22.9304 166.554 23.5704C166.287 24.1837 166.007 24.8771 165.714 25.6504C165.447 26.3971 165.207 27.1171 164.994 27.8104C164.78 28.5037 164.674 29.0771 164.674 29.5304C164.674 30.0104 164.82 30.2504 165.114 30.2504C165.3 30.2504 165.54 30.1704 165.834 30.0104C166.154 29.8237 166.527 29.5304 166.954 29.1304C167.727 28.4371 168.447 27.5571 169.114 26.4904C169.807 25.4237 170.62 23.9971 171.554 22.2104C171.554 22.1571 171.58 22.1304 171.634 22.1304C171.714 22.1304 171.794 22.1704 171.874 22.2504C171.954 22.3304 171.967 22.3971 171.914 22.4504C170.954 24.3171 170.074 25.8771 169.274 27.1304C168.5 28.3571 167.714 29.2904 166.914 29.9304C166.14 30.5437 165.274 30.8504 164.314 30.8504ZM172.853 31.0504C171.146 31.0504 169.973 30.7437 169.333 30.1304C168.719 29.5171 168.412 28.8371 168.412 28.0904C168.412 27.3971 168.586 26.7704 168.933 26.2104C169.279 25.6237 169.626 25.2771 169.973 25.1704C170.213 24.7437 170.466 24.2771 170.733 23.7704C171.026 23.2637 171.293 22.7704 171.533 22.2904C172.013 21.3304 172.506 20.4237 173.013 19.5704C173.519 18.6904 174.066 17.9837 174.653 17.4504C175.266 16.9171 175.906 16.6504 176.573 16.6504C176.893 16.6504 177.226 16.7171 177.573 16.8504C177.919 17.0104 178.093 17.1704 178.093 17.3304C178.093 17.4371 178.039 17.5171 177.933 17.5704C177.826 17.6237 177.706 17.6371 177.573 17.6104C177.093 17.4771 176.653 17.6104 176.253 18.0104C175.853 18.4104 175.653 18.9571 175.653 19.6504C175.653 19.7571 175.653 19.8771 175.653 20.0104C175.679 20.1171 175.706 20.2371 175.733 20.3704C175.893 21.0104 176.053 21.7437 176.213 22.5704C176.399 23.3971 176.493 24.2371 176.493 25.0904C176.493 25.4104 176.479 25.7304 176.453 26.0504C176.426 26.3704 176.359 26.6771 176.253 26.9704C175.906 27.9571 175.426 28.7437 174.813 29.3304C174.226 29.8904 173.506 30.3037 172.653 30.5704C173.293 30.5971 173.959 30.5437 174.653 30.4104C175.373 30.2504 175.986 30.0237 176.493 29.7304C177.373 29.2237 178.146 28.5304 178.812 27.6504C179.506 26.7704 180.119 25.8504 180.653 24.8904C181.186 23.9037 181.666 23.0104 182.093 22.2104C182.119 22.1037 182.199 22.0504 182.333 22.0504C182.413 22.0504 182.479 22.0904 182.533 22.1704C182.586 22.2237 182.586 22.2904 182.533 22.3704C181.999 23.3571 181.453 24.3571 180.893 25.3704C180.333 26.3571 179.706 27.2771 179.013 28.1304C178.319 28.9571 177.493 29.6371 176.533 30.1704C175.493 30.7571 174.266 31.0504 172.853 31.0504ZM171.213 30.3704C171.746 30.3704 172.293 30.1971 172.853 29.8504C173.413 29.5037 173.813 28.9971 174.053 28.3304C174.346 27.5037 174.519 26.5837 174.573 25.5704C174.653 24.5304 174.692 23.5571 174.692 22.6504C174.692 21.7437 174.706 21.0504 174.733 20.5704C174.786 19.8237 174.986 19.1304 175.333 18.4904C175.679 17.8237 176.266 17.4237 177.093 17.2904C176.906 17.1837 176.719 17.1304 176.533 17.1304C176.079 17.1304 175.613 17.3304 175.133 17.7304C174.653 18.1304 174.293 18.4904 174.053 18.8104C173.679 19.3171 173.319 19.9171 172.973 20.6104C172.626 21.3037 172.239 22.0371 171.813 22.8104L170.613 24.9704C170.693 24.9437 170.813 24.9304 170.973 24.9304C171.399 24.9304 171.666 25.0504 171.773 25.2904C171.906 25.5304 171.946 25.7037 171.893 25.8104C171.813 25.7837 171.733 25.7704 171.653 25.7704C171.599 25.7437 171.546 25.7304 171.493 25.7304C171.039 25.7304 170.639 25.9171 170.293 26.2904C169.973 26.6637 169.746 27.0771 169.613 27.5304C169.559 27.7171 169.519 27.9037 169.493 28.0904C169.466 28.2504 169.453 28.3971 169.453 28.5304C169.453 29.1704 169.626 29.6371 169.973 29.9304C170.319 30.2237 170.733 30.3704 171.213 30.3704ZM185.24 24.5704V24.4904C185.24 24.3304 185.374 23.9304 185.64 23.2904C185.907 22.6237 186.254 21.8104 186.68 20.8504C187.107 19.8637 187.574 18.8371 188.08 17.7704C188.587 16.6771 189.067 15.6237 189.52 14.6104C190 13.5704 190.414 12.6771 190.76 11.9304C191.134 11.1571 191.387 10.6237 191.52 10.3304C191.84 9.63706 192.16 9.14372 192.48 8.85039C192.8 8.55706 193.08 8.41039 193.32 8.41039C193.56 8.41039 193.747 8.51706 193.88 8.73039C194.04 8.94372 194.12 9.21039 194.12 9.53039C194.12 9.69039 194.094 9.86372 194.04 10.0504C194.014 10.2371 193.934 10.4237 193.8 10.6104C193.614 10.9304 193.28 11.5171 192.8 12.3704C192.347 13.1971 191.814 14.1571 191.2 15.2504C190.614 16.3171 190 17.3971 189.36 18.4904C188.907 19.3171 188.467 20.1171 188.04 20.8904C187.614 21.6371 187.214 22.2904 186.84 22.8504C186.467 23.4371 186.134 23.8904 185.84 24.2104C185.547 24.5304 185.347 24.6504 185.24 24.5704ZM183.04 31.1304C182.694 31.1304 182.387 31.0237 182.12 30.8104C181.854 30.5971 181.72 30.3037 181.72 29.9304C181.72 29.3704 181.894 28.9571 182.24 28.6904C182.614 28.4237 182.987 28.2904 183.36 28.2904C183.68 28.2904 183.974 28.3971 184.24 28.6104C184.507 28.8237 184.64 29.1171 184.64 29.4904C184.64 29.6504 184.627 29.7704 184.6 29.8504C184.494 30.2771 184.28 30.5971 183.96 30.8104C183.667 31.0237 183.36 31.1304 183.04 31.1304ZM194.459 24.5704V24.4904C194.459 24.3304 194.592 23.9304 194.859 23.2904C195.126 22.6237 195.472 21.8104 195.899 20.8504C196.326 19.8637 196.792 18.8371 197.299 17.7704C197.806 16.6771 198.286 15.6237 198.739 14.6104C199.219 13.5704 199.632 12.6771 199.979 11.9304C200.352 11.1571 200.606 10.6237 200.739 10.3304C201.059 9.63706 201.379 9.14372 201.699 8.85039C202.019 8.55706 202.299 8.41039 202.539 8.41039C202.779 8.41039 202.966 8.51706 203.099 8.73039C203.259 8.94372 203.339 9.21039 203.339 9.53039C203.339 9.69039 203.312 9.86372 203.259 10.0504C203.232 10.2371 203.152 10.4237 203.019 10.6104C202.832 10.9304 202.499 11.5171 202.019 12.3704C201.566 13.1971 201.032 14.1571 200.419 15.2504C199.832 16.3171 199.219 17.3971 198.579 18.4904C198.126 19.3171 197.686 20.1171 197.259 20.8904C196.832 21.6371 196.432 22.2904 196.059 22.8504C195.686 23.4371 195.352 23.8904 195.059 24.2104C194.766 24.5304 194.566 24.6504 194.459 24.5704ZM192.259 31.1304C191.912 31.1304 191.606 31.0237 191.339 30.8104C191.072 30.5971 190.939 30.3037 190.939 29.9304C190.939 29.3704 191.112 28.9571 191.459 28.6904C191.832 28.4237 192.206 28.2904 192.579 28.2904C192.899 28.2904 193.192 28.3971 193.459 28.6104C193.726 28.8237 193.859 29.1171 193.859 29.4904C193.859 29.6504 193.846 29.7704 193.819 29.8504C193.712 30.2771 193.499 30.5971 193.179 30.8104C192.886 31.0237 192.579 31.1304 192.259 31.1304Z" fill="#3B4860"/>
</svg>
