<svg width="124" height="173" viewBox="0 0 124 173" fill="none" xmlns="http://www.w3.org/2000/svg">
<g clip-path="url(#clip0_210_445)">
<path d="M52.3783 108.855L71.1809 171.978L86.6279 149.818L112.144 159.22L91.9984 98.1112L52.3783 108.855Z" fill="#CD3414"/>
<g opacity="0.7">
<path d="M62.966 126.448L60.9825 127.054L73.5534 168.248L75.5369 167.643L62.966 126.448Z" fill="#FFCE45"/>
</g>
<g opacity="0.7">
<path d="M91.648 107.867L89.6702 108.49L105.117 157.512L107.095 156.889L91.648 107.867Z" fill="#FFCE45"/>
</g>
<path d="M29.5484 102.138L9.40253 160.561L36.9337 151.161L51.0351 172.65L74.539 110.198L29.5484 102.138Z" fill="#FE5629"/>
<g opacity="0.7">
<path d="M34.6076 99.815L15.7993 157.564L17.771 158.206L36.5794 100.457L34.6076 99.815Z" fill="#FFCE45"/>
</g>
<g opacity="0.7">
<path d="M68.1932 106.504L46.6977 167.612L48.6539 168.3L70.1494 107.192L68.1932 106.504Z" fill="#FFCE45"/>
</g>
<path d="M-2.38575e-05 61.1752C-2.38575e-05 58.3521 6.881 56.0497 7.26982 53.3327C7.66572 50.5496 1.71316 46.4092 2.48845 43.7676C3.27789 41.0788 10.5289 40.8102 11.6789 38.2981C12.8406 35.7578 8.30433 30.0998 9.80307 27.7692C11.3112 25.4245 18.3431 27.2154 20.1647 25.1158C21.9886 23.0137 19.2221 16.3071 21.3241 14.4832C23.4214 12.6639 29.6685 16.3519 32.0132 14.8414C34.3438 13.3403 33.5709 6.12696 36.1112 4.96284C38.6232 3.81286 43.5743 9.11266 46.2631 8.32323C48.9071 7.54794 50.2079 0.410053 52.9933 0.0118014C55.7103 -0.374667 58.9599 6.10575 61.7831 6.10575C64.6062 6.10575 67.8534 -0.369954 70.5705 0.0165144C73.3535 0.412409 74.6567 7.55265 77.3007 8.32794C79.9895 9.11738 84.9405 3.81757 87.4526 4.96755C89.9929 6.12932 89.2223 13.345 91.5505 14.8461C93.8953 16.3542 100.14 12.6686 102.24 14.4879C104.342 16.3118 101.575 23.0185 103.399 25.1205C105.218 27.2178 112.25 25.4292 113.761 27.7739C115.262 30.1045 110.723 35.7601 111.885 38.3028C113.035 40.8149 120.286 41.0835 121.075 43.7723C121.851 46.4163 115.898 50.5543 116.294 53.3374C116.68 56.0544 123.564 58.3568 123.564 61.1799C123.564 64.003 116.683 66.3053 116.294 69.0224C115.898 71.8054 121.851 75.9458 121.075 78.5874C120.286 81.2762 113.035 81.5449 111.885 84.0569C110.723 86.5972 115.259 92.2552 113.761 94.5858C112.253 96.9306 105.221 95.1396 103.399 97.2393C101.575 99.3413 104.342 106.048 102.24 107.872C100.142 109.691 93.8953 106.003 91.5505 107.514C89.2199 109.015 89.9929 116.228 87.4526 117.392C84.9405 118.542 79.9895 113.242 77.3007 114.032C74.6567 114.807 73.3559 121.945 70.5705 122.343C67.8534 122.73 64.6038 116.249 61.7807 116.249C58.9576 116.249 55.708 122.73 52.9909 122.343C50.2079 121.947 48.9047 114.807 46.2607 114.032C43.5719 113.242 38.6209 118.542 36.1088 117.392C33.5685 116.23 34.3391 109.015 32.0109 107.514C29.6661 106.006 23.4214 109.691 21.3217 107.872C19.2197 106.048 21.9862 99.3413 20.1623 97.2393C18.3431 95.142 11.3112 96.9306 9.80072 94.5858C8.29962 92.2552 12.8383 86.5996 11.6765 84.0569C10.5265 81.5449 3.27553 81.2762 2.4861 78.5874C1.71081 75.9434 7.66336 71.8054 7.26746 69.0224C6.881 66.3053 -0.00238037 64.003 -0.00238037 61.1799L-2.38575e-05 61.1752Z" fill="#FCAB28"/>
<path d="M61.7807 110.869C89.2261 110.869 111.475 88.6205 111.475 61.1751C111.475 33.7298 89.2261 11.481 61.7807 11.481C34.3354 11.481 12.0865 33.7298 12.0865 61.1751C12.0865 88.6205 34.3354 110.869 61.7807 110.869Z" fill="#FFCE45"/>
<path d="M61.7808 111.876C48.2379 111.876 35.5056 106.602 25.9311 97.0248C16.3542 87.4479 11.0803 74.7157 11.0803 61.1751C11.0803 47.6346 16.3542 34.9 25.9311 25.3255C35.508 15.7486 48.2402 10.4747 61.7808 10.4747C75.3213 10.4747 88.0559 15.7486 97.6304 25.3255C107.207 34.9024 112.481 47.6346 112.481 61.1751C112.481 74.7157 107.207 87.4503 97.6304 97.0248C88.0536 106.602 75.3213 111.876 61.7808 111.876ZM61.7808 12.4896C34.9353 12.4896 13.0951 34.3297 13.0951 61.1751C13.0951 88.0205 34.9353 109.861 61.7808 109.861C88.6262 109.861 110.466 88.0205 110.466 61.1751C110.466 34.3297 88.6262 12.4896 61.7808 12.4896Z" fill="#FCAB28"/>
<path d="M61.7808 96.7656C81.4368 96.7656 97.3712 80.8312 97.3712 61.1751C97.3712 41.5191 81.4368 25.5847 61.7808 25.5847C42.1247 25.5847 26.1903 41.5191 26.1903 61.1751C26.1903 80.8312 42.1247 96.7656 61.7808 96.7656Z" fill="#FFD733"/>
<path d="M91.3291 47.0738C91.3291 44.8068 91.1076 42.594 90.7022 40.4449C84.243 31.4501 73.7 25.5847 61.7807 25.5847C42.1251 25.5847 26.1903 41.5195 26.1903 61.1752C26.1903 63.4421 26.4118 65.6549 26.8171 67.8041C33.2763 76.7989 43.8194 82.6642 55.7386 82.6642C75.3943 82.6642 91.3291 66.7295 91.3291 47.0738Z" fill="#FFE266"/>
<path d="M61.7808 97.8048C41.5831 97.8048 25.1534 81.3728 25.1534 61.1775C25.1534 40.9822 41.5854 24.5502 61.7808 24.5502C81.9762 24.5502 98.4081 40.9822 98.4081 61.1775C98.4081 81.3728 81.9762 97.8048 61.7808 97.8048ZM61.7808 26.6239C42.7284 26.6239 27.2272 42.1251 27.2272 61.1775C27.2272 80.2299 42.7284 95.7311 61.7808 95.7311C80.8332 95.7311 96.3344 80.2299 96.3344 61.1775C96.3344 42.1251 80.8332 26.6239 61.7808 26.6239Z" fill="#FCAB28"/>
<path d="M37.1881 31.5726L40.3247 23.65L43.2585 31.681L48.7539 34.8175L43.1501 37.7513L40.0136 47.8254L37.0797 37.6429L31.5844 34.5064L37.1881 31.5726Z" fill="white"/>
<path d="M61.0734 47.3906C61.5224 46.0086 63.4776 46.0086 63.9266 47.3906L67.2148 57.5106C67.4156 58.1287 67.9915 58.5471 68.6414 58.5471H79.2822C80.7353 58.5471 81.3395 60.4065 80.1639 61.2606L71.5553 67.5152C71.0296 67.8972 70.8096 68.5742 71.0104 69.1922L74.2986 79.3123C74.7476 80.6943 73.1659 81.8435 71.9903 80.9894L63.3817 74.7348C62.8559 74.3528 62.1441 74.3528 61.6183 74.7348L53.0097 80.9894C51.8341 81.8435 50.2524 80.6943 50.7014 79.3123L53.9896 69.1922C54.1904 68.5742 53.9704 67.8972 53.4447 67.5152L44.8361 61.2606C43.6605 60.4065 44.2647 58.5471 45.7178 58.5471H56.3586C57.0085 58.5471 57.5844 58.1287 57.7852 57.5106L61.0734 47.3906Z" fill="#F6F6F6"/>
</g>
<defs>
<clipPath id="clip0_210_445">
<rect width="123.562" height="172.65" fill="white"/>
</clipPath>
</defs>
</svg>
