<svg width="285" height="249" viewBox="0 0 285 249" fill="none" xmlns="http://www.w3.org/2000/svg">
<path d="M16.6767 25.6088C17.2201 26.3436 17.5031 27.1237 17.322 28.3559C20.3335 27.9263 22.2016 27.2706 24.8735 26.1515C24.8961 24.3879 24.4885 23.4156 24.1262 22.7599C21.6015 24.5688 19.6656 25.1001 16.6653 25.6088H16.6767Z" fill="#FF0E41"/>
<path d="M257.662 197.127C257.345 197.432 257.288 197.771 257.209 198.325C258.431 198.45 259.688 198.947 261.092 199.659C261.183 199.218 261.341 198.958 261.692 198.608C260.254 197.76 259.371 197.421 257.662 197.127Z" fill="#FFAF00"/>
<path d="M122.997 6.95668C121.774 6.99059 121.118 7.16017 120.167 8.05326C120.699 10.009 120.868 11.2187 120.993 13.197C121.661 12.9031 122.193 12.8466 122.646 12.8805C122.442 10.6082 122.612 9.18377 123.008 6.94537L122.997 6.95668Z" fill="#FF41AA"/>
<path d="M63.9105 7.90521C61.9632 10.7315 61.0574 12.6872 60.231 15.4457C62.4613 15.9544 63.9557 15.8752 65.337 15.4796C65.4502 13.7047 66.1974 12.529 67.5107 10.8219C65.62 10.2453 64.8049 9.47661 63.9105 7.90521Z" fill="#FFAF00"/>
<path d="M15.5112 77.1714C14.73 79.8846 14.379 82.1456 14.9564 84.4292C16.7339 85.051 17.968 85.0849 19.3605 84.6779C18.885 81.863 19.0322 80.2011 19.9606 77.5332C18.0925 78.0758 16.9151 78.1097 15.4999 77.1601L15.5112 77.1714Z" fill="#FF41AA"/>
<path d="M26.595 140.763C26.1761 141.599 26.2893 142.402 26.7874 143.589C28.746 143.035 29.9688 142.922 31.9048 143.159C31.5878 142.266 31.667 141.577 32.0746 140.231C30.1046 140.005 28.5649 140.231 26.595 140.763Z" fill="#FF41AA"/>
<path d="M282.247 43.7761C284.251 44.217 285.394 44.2283 287.319 43.1543C287.274 39.7402 287.477 37.7166 288.111 34.4268C286.9 34.6303 286.017 34.506 285.292 34.2573C284.681 38.0444 283.821 40.2941 282.247 43.7761Z" fill="#FF0E41"/>
<path d="M53.6813 226.226C54.0323 226.667 54.2587 227.119 54.4399 227.786C55.4928 226.825 56.2513 226.237 57.2137 225.729C57.2023 224.982 56.9985 224.609 56.6476 224.157C55.923 224.496 54.8361 225.242 53.6813 226.226Z" fill="#FFAF00"/>
<path d="M203.912 49.5084C202.316 49.4632 200.572 49.565 199.044 50.605C198.693 51.8938 198.387 52.753 197.685 53.94C198.84 53.6913 199.565 54.087 200.72 55.3079C201.286 53.3522 202.395 51.7129 203.912 49.5084Z" fill="#00D339"/>
<path d="M75.1018 153.059C75.5547 152.03 76.1094 151.589 77.0378 151.058C75.5207 150.018 73.8904 149.147 73.0526 149C72.5205 149.712 72.2488 150.424 71.9997 151.453C72.9507 151.611 73.7659 152.132 75.1018 153.059Z" fill="#FF0E41"/>
<path d="M76.9304 108.644C76.8964 109.481 77.1229 110.001 77.8248 110.6C78.6966 110.442 79.2966 110.216 79.7608 109.718C79.523 108.803 79.6362 108.136 79.9193 107.016C78.8777 107.797 78.2097 108.249 76.9304 108.644Z" fill="#00D339"/>
<path d="M38.2387 171.951C38.1482 170.809 37.7293 170.131 36.6764 169.441C35.5216 169.803 34.7404 170.233 34.197 170.979C34.6725 172.177 34.6498 173.104 34.446 174.687C35.7254 173.443 36.5518 172.709 38.2387 171.951Z" fill="#FF0E41"/>
<path d="M102.511 235.361C101.922 235.361 101.571 235.463 101.016 235.825C101.469 236.401 101.616 236.831 101.662 237.34C102.216 237.374 102.59 237.306 103.156 237.136C102.816 236.56 102.669 236.107 102.522 235.361H102.511Z" fill="#FF41AA"/>
<path d="M274.751 159.257C275.385 158.319 275.68 157.675 275.951 156.77C275.216 156.601 274.729 156.635 274.276 156.77C274.242 157.358 273.993 157.743 273.563 158.308C274.185 158.5 274.457 158.749 274.751 159.257Z" fill="#FF0E41"/>
<path d="M177.635 17.1987C179.062 15.1186 179.718 13.6715 180.307 11.6479C178.665 11.2749 177.567 11.3427 176.548 11.6479C176.469 12.9593 175.926 13.8185 174.963 15.0847C176.356 15.5029 176.956 16.0682 177.624 17.2213L177.635 17.1987Z" fill="#FF0E41"/>
<path d="M254.418 43.9013C253.524 45.7553 252.991 47.338 253.127 49.0564C254.327 49.7234 255.21 49.893 256.263 49.7799C256.263 47.6998 256.58 46.5241 257.577 44.7153C256.161 44.8735 255.312 44.7605 254.418 43.9013Z" fill="#00D339"/>
<path d="M185.662 38.531C184.949 38.5988 184.19 38.7345 183.567 39.2658C183.477 39.8537 183.386 40.2494 183.137 40.8146C183.635 40.645 183.975 40.7807 184.552 41.2668C184.7 40.3737 185.107 39.5937 185.662 38.531Z" fill="#008DF0"/>
<path d="M207.287 0.975791C205.826 1.34886 204.207 1.12275 201.003 -0.674744C200.46 0.817518 200.392 2.26456 200.879 4.18641C203.449 5.19256 205.056 5.58823 207.728 5.40735C207.049 3.9264 207.049 2.90895 207.287 0.975791Z" fill="#00D339"/>
<path d="M26.9341 68.014C27.1606 67.1774 27.3191 66.7478 27.8399 66.2278C27.5455 66.0469 27.387 65.8999 27.3304 65.6738C26.7303 66.2052 26.47 66.7026 26.153 67.5731C26.3794 67.7992 26.6398 67.9348 26.9341 68.014Z" fill="#FFAF00"/>
<path d="M86.078 61.9894C86.5874 62.2042 87.0177 62.1025 87.697 61.9103C87.2328 60.4294 87.1762 58.711 87.2894 56.7213C86.7233 56.8457 86.3497 56.7891 85.761 56.563C85.5006 58.6658 85.5459 59.8641 86.0667 61.9894H86.078Z" fill="#FF41AA"/>
<path d="M15.5222 117.067C15.8732 117.666 16.3147 118.288 17.0506 118.616C17.6054 118.446 18.0016 118.367 18.6017 118.344C18.2394 117.971 18.2281 117.621 18.4092 116.909C17.5488 117.146 16.6883 117.123 15.5222 117.067Z" fill="#00D339"/>
<path d="M227.744 61.9665C226.273 61.13 225.367 60.8473 223.589 61.2204C222.797 63.9336 222.129 65.4824 220.827 67.9243C221.835 68.0599 222.503 68.3765 223.012 68.7495C224.427 65.9007 225.65 64.3406 227.744 61.9665Z" fill="#008DF0"/>
<path d="M33.863 89.7768C32.3572 90.7942 31.2477 91.7552 30.5911 93.1231C31.2024 94.1631 31.8025 94.6832 32.6516 95.0675C33.5913 93.4848 34.3385 92.7274 35.9009 91.8004C34.7574 91.2917 34.1573 90.8282 33.863 89.7768Z" fill="#FFAF00"/>
<path d="M241.053 172.416C242.966 171.749 243.996 171.037 245.434 169.239C243.317 167.838 242.355 166.628 241.653 165C239.819 165.497 238.664 166.131 237 167.329C238.766 168.81 239.751 170.155 241.053 172.405V172.416Z" fill="#00D339"/>
<path d="M77.8023 194.551C79.1156 194.099 79.8742 193.669 80.8026 192.968C80.1912 192.267 79.693 191.939 79.1496 191.736C78.6854 192.29 78.1646 192.493 77.3268 192.731C77.8023 193.375 77.8929 193.816 77.8023 194.54V194.551Z" fill="#FF0E41"/>
<path d="M48.9309 197.941C49.4517 198.235 49.814 198.325 50.482 198.291C50.3801 197.556 50.4593 197.104 50.6858 196.629C50.2216 196.313 49.848 196.188 49.2593 196.053C49.2706 196.731 49.1687 197.217 48.9196 197.941H48.9309Z" fill="#FFAF00"/>
<path d="M284.148 119.272C284.386 120.855 284.046 121.804 283.333 123.138C285.948 123.251 288.575 123.059 289.696 122.607C289.798 121.363 289.583 120.289 289.096 118.854C287.828 119.385 286.458 119.374 284.148 119.272Z" fill="#00D339"/>
<path d="M142.244 53.9283C141.599 55.511 141.689 56.6754 142.618 58.3033C144.395 58.5973 145.72 58.5634 146.954 57.9303C147.135 56.0197 147.791 54.7988 149.127 52.843C146.591 53.6344 144.995 54.0527 142.244 53.9283Z" fill="#FF41AA"/>
<path d="M55.3625 52.5609C55.8041 49.7686 56.2003 48.3668 57.6835 46.4901C56.6645 46.0153 56.1098 45.5631 55.8607 44.8848C54.1172 46.8067 53.4153 48.4911 52.6907 51.4078C53.5171 52.0635 54.3776 52.4027 55.3625 52.5722V52.5609Z" fill="#008DF0"/>
<path d="M14.4511 192.471C13.8624 193.206 13.1944 193.726 12.1755 194.28C14.1228 195.647 15.3568 196.665 16.5343 198.055C17.7457 197.761 18.2778 197.309 18.9005 196.563C18.0966 195.512 16.4663 193.997 14.4398 192.482L14.4511 192.471Z" fill="#008DF0"/>
<path d="M234.243 13.5469C234.651 14.1461 234.843 14.7679 234.662 15.7288C237.04 15.4914 238.523 15.0392 240.662 14.2478C240.73 12.8573 240.447 12.0886 240.187 11.5573C238.138 12.8912 236.609 13.2417 234.243 13.5469Z" fill="#FF41AA"/>
<path d="M284.08 199.582C284.522 198.53 284.646 197.897 284.25 196.733C282.37 196.416 281.272 196.088 279.529 195.41C279.517 196.1 279.359 196.575 279.144 196.936C281.17 197.66 282.314 198.361 284.08 199.582Z" fill="#FF0E41"/>
<path d="M257.196 120C256.064 120.554 255.509 120.984 255 122.238C256.324 123.855 257.004 124.918 257.955 126.738C258.464 126.184 258.928 125.901 259.37 125.743C258.215 123.686 257.762 122.284 257.196 120Z" fill="#FF41AA"/>
<path d="M285.394 91.8908C283.945 90.5342 282.994 89.9463 280.854 89.8898C279.201 92.7612 278.012 94.3553 275.85 96.7858C276.959 97.2154 277.638 97.7581 278.114 98.3233C280.503 95.4631 282.348 94.0161 285.394 91.8908Z" fill="#FFAF00"/>
<path d="M266.136 66.533C267.393 67.2 268.819 67.7991 270.438 67.573C271.219 66.6799 271.808 66.126 272.827 65.4477C271.808 65.199 271.389 64.5998 270.948 63.1641C269.725 64.4981 268.208 65.3685 266.136 66.533Z" fill="#008DF0"/>
<path d="M5.73504 216.335C4.05945 218.2 2.9273 219.139 0.69696 220.348C1.27436 221.445 1.96497 222.281 2.99523 222.79C4.56892 222.123 6.2898 220.891 8.42957 219.014C6.73134 218.347 5.97279 217.737 5.73504 216.335Z" fill="#008DF0"/>
<path d="M50.0072 121.612C50.7205 120.47 51.0375 119.69 51.3092 118.594C50.4261 118.436 49.8374 118.492 49.3053 118.673C49.3053 119.374 49.0222 119.837 48.5354 120.538C49.2826 120.73 49.6223 121.013 49.9959 121.612H50.0072Z" fill="#FFAF00"/>
<path d="M54.5613 188.421C54.4254 188.173 54.3688 187.924 54.4707 187.551C53.5197 187.551 52.9196 187.687 52.0479 187.913C51.9686 188.455 52.0479 188.772 52.1384 188.987C52.9876 188.534 53.6102 188.444 54.5499 188.421H54.5613Z" fill="#FFAF00"/>
<path d="M282.954 216.742C280.565 216.674 279.082 216.878 277.157 217.443C277.7 218.935 278.312 219.772 279.059 220.427C280.135 219.817 281.108 219.817 282.603 219.941C282.229 218.619 282.365 217.85 282.954 216.742Z" fill="#00D339"/>
<path d="M110.952 21.8339C110.352 21.3364 109.945 20.7486 109.843 19.6972C107.442 20.6807 106.039 21.6077 104.057 23.1C104.408 24.5697 104.952 25.2819 105.382 25.7454C107.091 23.7218 108.575 22.8739 110.952 21.8225V21.8339Z" fill="#00D339"/>
<path d="M9.68036 128.496C9.71432 129.694 9.87283 130.994 10.7219 132.091C11.7069 132.294 12.3636 132.487 13.2919 132.961C13.0542 132.102 13.3146 131.548 14.1863 130.621C12.6919 130.282 11.4126 129.536 9.69168 128.496H9.68036Z" fill="#00D339"/>
</svg>
